<svg width="35" height="39" viewBox="0 0 35 39" fill="none" xmlns="http://www.w3.org/2000/svg">
<path d="M10.6111 13.1499L10.8386 13.1304C10.9247 13.1207 11.0027 13.0898 11.0677 13.0443L11.0661 13.0459C11.2838 13.7967 11.5504 14.5865 11.8835 15.4136C12.3109 16.4959 12.7318 17.3848 13.203 18.2428L13.138 18.1128C13.099 18.7043 13.0519 19.3121 12.9901 19.9004C12.9609 20.2628 12.8894 20.6008 12.7805 20.9193L12.7886 20.89C12.7691 20.8982 12.7415 24.2701 12.7415 24.2701C12.7431 26.4688 14.2658 28.31 16.3134 28.7992L16.3459 28.8057C16.4385 28.57 16.6628 28.4059 16.926 28.4059H17.8588C18.1204 28.4091 18.3447 28.5716 18.4373 28.8008L18.4389 28.8057C20.5239 28.3149 22.0531 26.4737 22.0612 24.2734C22.0612 24.2734 22.0043 20.9144 21.9751 20.8917C21.8857 20.6073 21.8142 20.2725 21.7768 19.928L21.7752 19.9036C21.7183 19.3121 21.6809 18.719 21.6273 18.1161C22.0287 17.3913 22.4496 16.504 22.8201 15.5891L22.8818 15.4169C23.215 14.5897 23.4733 13.8016 23.6992 13.0492C23.7626 13.0947 23.8406 13.1255 23.9251 13.1353H23.9267L24.1559 13.1548C24.4321 13.184 24.6759 12.9565 24.6986 12.6039L24.9456 9.46592C24.9456 9.4643 24.9456 9.46267 24.9456 9.46267C24.9456 9.19779 24.7474 8.98003 24.4923 8.94753H24.489H24.4614C24.5248 8.49089 24.5605 7.96438 24.5605 7.42973C24.5605 6.26295 24.3883 5.13516 24.0681 4.074L24.0892 4.15688C23.1516 2.09957 21.2925 0.606144 19.0532 0.188506L19.011 0.182006C18.5299 0.0828776 17.9693 0.0162505 17.3973 0H17.3827H17.3632C16.7798 0.0113754 16.2191 0.0763774 15.6764 0.191756L15.7349 0.182006C13.4565 0.611019 11.6007 2.10444 10.6744 4.113L10.6566 4.15688C10.3543 5.13191 10.1804 6.2532 10.1804 7.41348C10.1804 7.95462 10.2178 8.48764 10.2909 9.00766L10.2844 8.94753C10.0261 8.97678 9.82617 9.19291 9.82617 9.45617V9.46755L10.0732 12.6055C10.0959 12.9663 10.3429 13.184 10.6094 13.1548L10.6111 13.1499Z" fill="#F7DECE"/>
<path d="M34.8034 33.9176C34.6897 28.9775 34.1957 27.8594 33.9291 27.1022C33.8235 26.7983 33.7374 24.7442 30.3443 23.4117C28.2642 22.5927 25.5796 22.5764 23.3078 21.616V24.2876C23.3029 27.1607 21.2456 29.5511 18.5237 30.0728L18.4863 30.0793C18.4359 30.375 18.1824 30.596 17.8785 30.5993H17.8493V32.6143C17.8493 34.5839 19.4451 36.1797 21.4146 36.1797C23.3842 36.1797 24.98 34.5839 24.98 32.6143V31.2071C23.992 31.0592 23.2428 30.2174 23.2428 29.2001C23.2428 28.0805 24.1512 27.1721 25.2709 27.1721C26.3905 27.1721 27.2989 28.0805 27.2989 29.2001C27.2989 30.0874 26.7285 30.8414 25.9355 31.1177L25.9209 31.1226V32.6143V32.6907C25.9209 35.1803 23.9026 37.1986 21.413 37.1986C18.9234 37.1986 16.9051 35.1803 16.9051 32.6907C16.9051 32.6631 16.9051 32.6371 16.9051 32.6095V32.6127V30.5798C16.6159 30.5603 16.3819 30.3425 16.3363 30.063V30.0598C13.59 29.5251 11.5424 27.1428 11.5359 24.2811V21.5884C9.25438 22.5683 6.55354 22.5878 4.4621 23.4084C1.05925 24.7394 0.981243 26.7885 0.87724 27.0973C0.617232 27.8578 0.116716 28.971 0.00296249 33.9144C-0.0165381 34.5644 0.00296258 35.5606 1.96277 36.4316C6.23016 38.1054 11.7277 38.6254 17.1472 38.9992H17.6673C23.0982 38.6287 28.5876 38.1103 32.8517 36.4316C34.8034 35.5654 34.8213 34.5742 34.8034 33.9176ZM10.9461 31.9026H8.92124V33.9355H7.47495V31.9091H5.45013V30.4628H7.47495V28.438H8.92124V30.4628H10.9461V31.9026Z" fill="#577CFF"/>
<path d="M26.367 29.1837C26.367 28.5791 25.8779 28.0884 25.2733 28.0884C24.6688 28.0884 24.1797 28.5775 24.1797 29.182C24.1797 29.7866 24.6688 30.2757 25.2733 30.2757C25.8762 30.2757 26.3654 29.7866 26.367 29.1837Z" fill="black"/>
</svg>
