<svg width="160" height="160" viewBox="0 0 160 160" fill="none" xmlns="http://www.w3.org/2000/svg">
<rect width="160" height="160" rx="8" fill="#EFEBFF"/>
<circle cx="79.5" cy="79.5" r="43.5" fill="#D6DAFF"/>
<path fill-rule="evenodd" clip-rule="evenodd" d="M91.4626 69.5237C91.4626 76.6345 86.3323 82.737 79.5007 82.737C72.6638 82.737 67.5388 76.6345 67.5388 69.5215C67.5388 62.413 71.9514 58.2556 79.5007 58.2556C87.05 58.2556 91.4626 62.4108 91.4626 69.5237ZM58.5063 98.6321C59.5297 99.6514 63.937 102.767 79.5007 102.767C95.0644 102.767 99.469 99.6514 100.495 98.6343C100.59 98.5366 100.661 98.4236 100.702 98.3023C100.743 98.1809 100.754 98.0539 100.734 97.9288C100.5 95.9659 98.3898 87.1882 79.5007 87.1882C60.6116 87.1882 58.501 95.9659 58.2644 97.9288C58.2452 98.054 58.2567 98.1812 58.2983 98.3025C58.3399 98.4238 58.4107 98.5345 58.5063 98.6321Z" fill="white"/>
</svg>
